# xmcd CD database file
# Generated: Tue Oct 22 06:25:11 2002 by KSCD
# 
# Track frame offsets:
#       150
#       13192
#       26173
#       40045
#       53836
#       69936
#       82482
#       98151
#       112826
#       130583
#       144869
#       161236
#       169087
#       183436
#       187628
#       191820
#       194937
#       198054
#       205085
#       210221
#       217247
#       222311
#       229377
#       234597
#       241446
#       246542
#       250643
#       253904
#       260259
#       264753
#       269016
#       272344
#       284807
#       294837
#       302396
#
# Disc length: 4103 seconds
#
# Revision: 1
# Processed by: cddbd v1.4PL0 Copyright (c) Steve Scherf et al.
# Submitted via: Kscd 1.3.3
#
DISCID=0e100523
DTITLE=Jay Buckey - Mandolin V4
DYEAR=1900
DGENRE=
TTITLE0=Fireball Mail
TTITLE1=Gold Rush
TTITLE2=Blue Kentucky Girl
TTITLE3=Ragtime Annie
TTITLE4=Clinch Mountain Backstep
TTITLE5=Some Old Day
TTITLE6=Banjo Signal
TTITLE7=How Mountain Girls Can Love
TTITLE8=Wayfaring Stranger
TTITLE9=Shenandoah Breakdown
TTITLE10=Think of What You've Done
TTITLE11=Jerusalem Ridge
TTITLE12=Wheel Hoss
TTITLE13=Fireball Mail Solo 1 100bpm
TTITLE14=Fireball Mail Solo 2 100bpm
TTITLE15=Fireball Mail Solo 1 150bpm
TTITLE16=Fireball Mail Solo 2 150bpm
TTITLE17=Gold Rush 100bpm
TTITLE18=Gold Rush 150bpm
TTITLE19=Ragtime Annie 100bpm
TTITLE20=Ragtime Annie 150bpm
TTITLE21=Clinch 100bpm
TTITLE22=Clinch Solo 1 150bpm
TTITLE23=Banjo Signal 100bpm
TTITLE24=Banjo Signal 150bpm
TTITLE25=How Mountain Girls Can Love 100bpm
TTITLE26=How Mountain Girls Can Love 150bpm
TTITLE27=Shenandoah Breakdown 115bpm
TTITLE28=Shenandoah Breakdown 180bpm
TTITLE29=Think of What You've Done 100bpm
TTITLE30=Think of What You've Done 150bpm
TTITLE31=Jerusalem Ridge 100bpm
TTITLE32=Jerusalem Ridge 150bpm
TTITLE33=Wheel Hoss 100bpm
TTITLE34=Wheel Hoss 150bpm
EXTD=
EXTT0=
EXTT1=
EXTT2=
EXTT3=
EXTT4=
EXTT5=
EXTT6=
EXTT7=
EXTT8=
EXTT9=
EXTT10=
EXTT11=
EXTT12=
EXTT13=
EXTT14=
EXTT15=
EXTT16=
EXTT17=
EXTT18=
EXTT19=
EXTT20=
EXTT21=
EXTT22=
EXTT23=
EXTT24=
EXTT25=
EXTT26=
EXTT27=
EXTT28=
EXTT29=
EXTT30=
EXTT31=
EXTT32=
EXTT33=
EXTT34=
PLAYORDER=
